<svg fill="none" xmlns="http://www.w3.org/2000/svg" viewBox="0 0 259 293"><g clip-path="url(#a)"><path d="M176 162c-35 45-90 55-122 30-32-24-37-80-2-126s90-55 122-31c32 25 37 81 2 127Z" stroke="#00E749" stroke-width="32"/><path fill-rule="evenodd" clip-rule="evenodd" d="M97 241c23 18 68 14 100-28 32-41 24-86 1-103-22-18-68-14-100 28-31 41-24 86-1 103Zm-19 26c41 31 106 16 144-34 39-51 37-117-4-149-42-31-106-16-145 34-39 51-37 117 5 149Zm-15-87c23 17 69 13 101-28 31-41 23-86 1-104-23-18-69-14-101 28-31 41-24 86-1 104Zm-19 25c41 32 106 17 145-34 39-50 36-117-5-148C143-9 78 6 39 56 0 107 3 173 44 205Z" fill="#3FFF7C"/></g><defs><clipPath id="a"><path fill="#fff" d="M0 0h259v293H0z"/></clipPath></defs></svg>